<?xml version="1.0" encoding="UTF-8"?>
<svg version="1.1" xmlns="http://www.w3.org/2000/svg" width="296" height="296">
<path d="M0 0 C1.22726807 0.00684814 2.45453613 0.01369629 3.71899414 0.02075195 C12.81308126 0.18169324 20.56999781 1.20840604 29.125 4.4375 C30.8575 5.03304687 30.8575 5.03304687 32.625 5.640625 C38.9842079 7.92415875 44.58905062 10.58393359 50.125 14.4375 C51.68627966 15.48099486 53.24881595 16.52261159 54.8125 17.5625 C55.5653125 18.0678125 56.318125 18.573125 57.09375 19.09375 C59.39545106 20.61641378 61.75314311 22.02720672 64.125 23.4375 C66.16549422 24.7079964 68.17517465 26.03181196 70.125 27.4375 C70.125 28.0975 70.125 28.7575 70.125 29.4375 C71.21941406 29.80681641 71.21941406 29.80681641 72.3359375 30.18359375 C75.4265674 31.57307862 77.2964487 33.17363948 79.75 35.5 C84.21061004 39.64056627 88.82494524 43.50244894 93.58203125 47.296875 C96.25360951 49.54576115 98.68312096 51.94288936 101.125 54.4375 C102.053125 55.324375 102.98125 56.21125 103.9375 57.125 C106.125 59.4375 106.125 59.4375 106.125 61.4375 C106.681875 61.664375 107.23875 61.89125 107.8125 62.125 C112.76934896 64.93834671 116.44605645 69.81798866 120.25 74 C121.52230469 75.39412109 121.52230469 75.39412109 122.8203125 76.81640625 C128.52779591 83.30745941 128.52779591 83.30745941 128.3125 88.1875 C128.28542969 88.98671875 128.25835937 89.7859375 128.23046875 90.609375 C128.19566406 91.21265625 128.16085937 91.8159375 128.125 92.4375 C125.8125 92.6640625 125.8125 92.6640625 123.125 92.4375 C121.5 90.8984375 121.5 90.8984375 120.125 88.8125 C119.61839844 88.0803125 119.11179687 87.348125 118.58984375 86.59375 C118.10644531 85.8821875 117.62304688 85.170625 117.125 84.4375 C113.0634623 79.23040039 108.54839817 73.57863272 102.125 71.4375 C101.691875 70.98375 101.25875 70.53 100.8125 70.0625 C96.34263984 65.75819021 90.95979744 64.6642838 85 64.1875 C69.50512181 65.18716956 57.38385457 73.38601314 47.25 84.625 C45.07847592 87.1045775 43.49570631 89.43658474 42.125 92.4375 C41.465 92.4375 40.805 92.4375 40.125 92.4375 C40.03605469 92.98277344 39.94710937 93.52804688 39.85546875 94.08984375 C38.89821672 97.16635965 37.28262359 99.36059463 35.4375 102 C30.84600935 108.73912338 26.87887767 115.66991093 23.4375 123.0625 C22.125 125.4375 22.125 125.4375 19.125 126.4375 C18.78298269 122.06313493 18.45304666 117.68793317 18.125 113.3125 C17.98191406 111.48525391 17.98191406 111.48525391 17.8359375 109.62109375 C17.21202451 101.19826835 17.00810871 92.8812719 17.125 84.4375 C16.49110352 84.58010254 15.85720703 84.72270508 15.20410156 84.86962891 C10.26751068 85.97031214 5.74781249 86.46368197 0.6875 86.5 C-8.40444761 87.06891762 -13.53892668 92.96565626 -19.5625 99.234375 C-21.875 101.4375 -21.875 101.4375 -23.875 101.4375 C-24.37 102.9225 -24.37 102.9225 -24.875 104.4375 C-26.8455292 105.8140146 -28.85104002 107.14082588 -30.875 108.4375 C-32.8543592 110.03682223 -34.81245918 111.66276365 -36.75 113.3125 C-41.34847319 117.18645945 -45.96791171 120.95974912 -50.875 124.4375 C-51.76574219 125.07429688 -52.65648438 125.71109375 -53.57421875 126.3671875 C-69.48010983 137.38695518 -87.11999845 144.00274851 -106.70703125 141.00390625 C-113.71434725 139.4260351 -119.52531742 136.25337477 -124.875 131.4375 C-124.875 130.7775 -124.875 130.1175 -124.875 129.4375 C-125.865 129.1075 -126.855 128.7775 -127.875 128.4375 C-135.99529485 119.77841782 -140.05205384 107.90506326 -140.4375 96.1875 C-139.96254848 84.81433661 -135.68312247 76.18339258 -127.6875 68.2734375 C-120.55348936 61.98544735 -113.54826091 59.91828482 -104.1875 59.125 C-96.36202313 59.86325254 -90.95177641 61.2657754 -84.875 66.4375 C-84.875 67.0975 -84.875 67.7575 -84.875 68.4375 C-84.276875 68.664375 -83.67875 68.89125 -83.0625 69.125 C-79.02198955 71.54930627 -77.81105337 75.17042774 -76.6875 79.5625 C-75.05883904 87.87143135 -74.68205961 96.8220535 -78.875 104.4375 C-83.20905451 109.65628398 -88.09253835 111.91663784 -94.84765625 112.65234375 C-103.23010811 113.05612274 -109.7853201 108.85201973 -115.875 103.4375 C-118.875 99.86317568 -118.875 99.86317568 -118.875 97.4375 C-113.25 97.1875 -113.25 97.1875 -109.875 99.4375 C-104.57056365 100.1245508 -99.83012985 99.47037378 -94.875 97.4375 C-93.57298065 89.73566336 -93.57298065 89.73566336 -95.875 82.4375 C-99.3970974 79.83785668 -101.42541081 79.43036366 -105.8125 79.5 C-110.01597302 80.27305251 -113.68491594 81.51676341 -116.875 84.4375 C-119.75428578 88.89989824 -120.33000424 93.32556819 -119.38671875 98.48828125 C-117.95284783 103.95012545 -115.98223109 107.61352622 -111.875 111.4375 C-111.875 112.0975 -111.875 112.7575 -111.875 113.4375 C-111.153125 113.72625 -110.43125 114.015 -109.6875 114.3125 C-108.00652127 114.98489149 -106.3395686 115.69748384 -104.7109375 116.48828125 C-94.06091962 120.05295666 -81.33944909 117.58977553 -71.55859375 112.8203125 C-66.25685035 110.05985169 -61.48665699 107.25159302 -56.875 103.4375 C-52.26785714 100.4375 -52.26785714 100.4375 -49.875 100.4375 C-49.38 98.9525 -49.38 98.9525 -48.875 97.4375 C-47.203125 95.7890625 -47.203125 95.7890625 -45.125 94.0625 C-40.19994662 89.87620463 -35.8314014 85.56616848 -31.875 80.4375 C-32.53628906 80.355 -33.19757813 80.2725 -33.87890625 80.1875 C-37.87666557 79.18675712 -41.20049314 77.38932979 -44.8125 75.4375 C-45.55234131 75.04103271 -46.29218262 74.64456543 -47.05444336 74.23608398 C-52.11744891 71.48434453 -57.07014933 68.58441274 -61.9375 65.5 C-62.53876709 65.12294922 -63.14003418 64.74589844 -63.75952148 64.35742188 C-65.17006367 63.44112232 -66.5291179 62.44637834 -67.875 61.4375 C-67.875 60.7775 -67.875 60.1175 -67.875 59.4375 C-68.93654297 59.03724609 -68.93654297 59.03724609 -70.01953125 58.62890625 C-73.98930353 56.97257172 -77.68807643 54.85895026 -81.44921875 52.77734375 C-90.13021098 49.38215523 -100.30570274 50.1638013 -109.5 49.875 C-110.79035156 49.83181641 -112.08070312 49.78863281 -113.41015625 49.74414062 C-116.56501933 49.63897852 -119.71994895 49.53683396 -122.875 49.4375 C-122.90184312 46.62493719 -122.92176188 43.81262759 -122.9375 41 C-122.94587891 40.19755859 -122.95425781 39.39511719 -122.96289062 38.56835938 C-122.9715143 36.52454779 -122.9272815 34.48066098 -122.875 32.4375 C-121.13978823 30.70228823 -118.72469634 31.14319693 -116.35546875 31.0078125 C-115.19708496 30.93643066 -114.03870117 30.86504883 -112.84521484 30.79150391 C-110.972771 30.67814697 -110.972771 30.67814697 -109.0625 30.5625 C-85.80121267 29.48579852 -85.80121267 29.48579852 -63.875 22.4375 C-62.99328125 22.02113281 -62.1115625 21.60476562 -61.203125 21.17578125 C-56.27934543 18.82573377 -56.27934543 18.82573377 -51.7734375 15.78515625 C-49.875 14.4375 -49.875 14.4375 -46.875 14.4375 C-46.875 13.7775 -46.875 13.1175 -46.875 12.4375 C-31.57829119 4.4962299 -17.42630735 -0.15034084 0 0 Z M-43.0625 28 C-50.91968855 31.99335132 -58.86776493 35.75601261 -66.875 39.4375 C-66.875 40.0975 -66.875 40.7575 -66.875 41.4375 C-65.13951831 42.88276736 -63.33524037 44.2462222 -61.5 45.5625 C-60.50226563 46.28695312 -59.50453125 47.01140625 -58.4765625 47.7578125 C-56.11107762 49.61830472 -56.11107762 49.61830472 -53.875 49.4375 C-53.875 50.0975 -53.875 50.7575 -53.875 51.4375 C-52.204375 52.4275 -52.204375 52.4275 -50.5 53.4375 C-49.87351562 53.80875 -49.24703125 54.18 -48.6015625 54.5625 C-46.90027333 55.58818348 -46.90027333 55.58818348 -44.875 55.4375 C-44.875 56.0975 -44.875 56.7575 -44.875 57.4375 C-23.20580457 69.92295191 -2.73050467 76.84299349 22.125 70.4375 C29.61295786 68.40007891 36.70593126 65.83668867 43.83984375 62.80078125 C55.52781091 57.95048335 66.46434949 54.50637588 79.125 53.4375 C76.71438104 49.82157157 73.84518968 48.43508011 70.125 46.4375 C67.20549317 44.79972787 64.85377379 43.20243729 62.3125 41 C59.52036055 38.61282734 56.65147509 37.1002618 53.33984375 35.54296875 C49.93670976 33.84440275 46.74490955 31.81598964 43.51953125 29.8046875 C41.11445141 28.43147715 38.71689467 27.40428132 36.125 26.4375 C36.09921875 27.24832031 36.0734375 28.05914062 36.046875 28.89453125 C35.36570424 42.19284231 31.80398186 51.75851814 22.375 61.1875 C13.34131385 67.44159041 3.90850838 68.93588566 -6.875 67.4375 C-17.66981018 64.6746154 -24.02227407 58.82543458 -29.83203125 49.625 C-32.56054874 43.90226668 -33.22656917 38.22624784 -33.5 32 C-33.55800781 30.90268555 -33.55800781 30.90268555 -33.6171875 29.78320312 C-33.71033984 28.00166468 -33.79370286 26.21961878 -33.875 24.4375 C-37.26364491 24.4375 -40.1005391 26.47456235 -43.0625 28 Z " fill="#420B8E" transform="translate(151.875,101.5625)"/>
<path d="M0 0 C1.25941406 -0.01224609 2.51882812 -0.02449219 3.81640625 -0.03710938 C14.51390108 -0.05377214 24.1418998 1.25660497 34.1875 4.9375 C35.2698291 5.32675659 35.2698291 5.32675659 36.37402344 5.72387695 C42.74142461 8.07173249 48.81234273 10.8959726 54.75 14.1875 C55.68328125 14.69925781 56.6165625 15.21101563 57.578125 15.73828125 C58.29484375 16.21652344 59.0115625 16.69476563 59.75 17.1875 C59.75 17.8475 59.75 18.5075 59.75 19.1875 C60.47316406 19.28417969 61.19632813 19.38085938 61.94140625 19.48046875 C65.15180404 20.28864956 67.0320326 21.5409111 69.6875 23.5 C72.54326243 25.58312715 75.38034897 27.62211907 78.375 29.5 C79.15875 30.056875 79.9425 30.61375 80.75 31.1875 C80.75 31.8475 80.75 32.5075 80.75 33.1875 C81.48734375 33.29964844 82.2246875 33.41179687 82.984375 33.52734375 C85.83372306 34.20748474 87.54190583 35.19821753 90 36.75 C94.85795652 39.26298804 99.0686511 39.70760212 104.4375 39.75 C105.1500293 39.76426025 105.86255859 39.77852051 106.59667969 39.79321289 C112.03891033 39.69147124 115.18889724 38.11157331 119.75 35.1875 C120.678125 34.878125 121.60625 34.56875 122.5625 34.25 C125.00872333 33.3363168 125.00872333 33.3363168 126.0625 30.5625 C126.4028125 29.386875 126.4028125 29.386875 126.75 28.1875 C127.74 28.5175 128.73 28.8475 129.75 29.1875 C128.0418579 37.77316159 125.23762028 44.69021822 120.75 52.1875 C120.42 52.8475 120.09 53.5075 119.75 54.1875 C119.09 54.1875 118.43 54.1875 117.75 54.1875 C117.75 54.8475 117.75 55.5075 117.75 56.1875 C109.83808378 63.38015111 103.57008505 64.03821644 93.0703125 63.75390625 C84.87217505 63.16790538 78.56597092 59.50644427 71.75 55.1875 C71.0914502 54.78160645 70.43290039 54.37571289 69.75439453 53.95751953 C65.69391433 51.45106251 61.70651886 48.85469173 57.75 46.1875 C56.76 45.5275 55.77 44.8675 54.75 44.1875 C54.75 43.5275 54.75 42.8675 54.75 42.1875 C54.04875 42.105 53.3475 42.0225 52.625 41.9375 C49.75 41.1875 49.75 41.1875 47.0625 39.375 C42.84569445 36.59031709 38.46617449 34.9443752 33.75 33.1875 C33.16275146 32.95264893 32.57550293 32.71779785 31.97045898 32.47583008 C4.08535052 21.51911148 -28.81965007 25.48015391 -55.87109375 37.1640625 C-60.2272453 39.12051629 -64.38540075 41.37898689 -68.5625 43.6875 C-74.75841768 47.0963066 -81.01119887 49.79088183 -87.6875 52.125 C-88.4916333 52.40730469 -89.2957666 52.68960938 -90.12426758 52.98046875 C-98.95823353 55.94846307 -107.48884812 57.5384322 -116.8125 57.5 C-117.59818359 57.51611328 -118.38386719 57.53222656 -119.19335938 57.54882812 C-128.01785499 57.55609108 -135.31649668 55.05140923 -142.109375 49.38671875 C-149.3283399 41.97015444 -153.11594559 32.39398966 -154.25 22.1875 C-153.8125 19.8125 -153.8125 19.8125 -153.25 18.1875 C-151.93 18.5175 -150.61 18.8475 -149.25 19.1875 C-149.25 20.1775 -149.25 21.1675 -149.25 22.1875 C-148.26 22.5175 -147.27 22.8475 -146.25 23.1875 C-146.25 23.8475 -146.25 24.5075 -146.25 25.1875 C-145.734375 25.414375 -145.21875 25.64125 -144.6875 25.875 C-142.58693192 27.00607512 -140.88923597 28.18969945 -139 29.625 C-132.07616237 34.62965022 -123.76866147 37.03936986 -115.234375 35.7265625 C-113.81863229 35.4424469 -112.40709597 35.13673763 -111 34.8125 C-110.2371167 34.64041016 -109.4742334 34.46832031 -108.68823242 34.29101562 C-97.89554266 31.62426494 -87.32924049 26.855195 -77.79296875 21.15625 C-74.27570139 19.09669002 -70.59420329 17.6466453 -66.79833984 16.17871094 C-64.41212019 15.25055882 -62.05958374 14.26773371 -59.70703125 13.2578125 C-40.2901113 5.06158989 -21.12810033 0.01068155 0 0 Z " fill="#420B8E" transform="translate(162.25,55.8125)"/>
<path d="M0 0 C0.99 0.33 1.98 0.66 3 1 C2.67 2.65 2.34 4.3 2 6 C0.68 5.67 -0.64 5.34 -2 5 C-1.34 3.35 -0.68 1.7 0 0 Z " fill="#774F88" transform="translate(289,84)"/>
</svg>
