<?xml version="1.0" standalone="no"?>
<!DOCTYPE svg PUBLIC "-//W3C//DTD SVG 20010904//EN"
 "http://www.w3.org/TR/2001/REC-SVG-20010904/DTD/svg10.dtd">
<svg version="1.0" xmlns="http://www.w3.org/2000/svg"
 width="296.000000pt" height="296.000000pt" viewBox="0 0 296.000000 296.000000"
 preserveAspectRatio="xMidYMid meet">

<g transform="translate(0.000000,296.000000) scale(0.100000,-0.100000)"
fill="#000000" stroke="none">
<path d="M1440 2381 c-25 -5 -72 -16 -105 -26 -33 -9 -78 -20 -100 -25 -59
-13 -175 -60 -405 -166 -294 -135 -390 -157 -510 -119 -56 18 -181 110 -201
147 -20 37 -26 7 -12 -64 16 -88 60 -165 123 -218 77 -64 82 -65 230 -64 130
0 139 2 245 38 61 21 142 54 180 73 39 20 95 48 125 63 156 78 271 108 512
131 102 10 142 10 200 0 202 -36 330 -91 545 -236 48 -33 120 -75 158 -95 61
-30 82 -35 158 -38 48 -2 98 -1 111 2 37 9 112 82 142 138 15 29 33 64 41 78
14 27 18 70 6 70 -4 0 -32 -17 -62 -37 -54 -38 -55 -38 -155 -38 -122 1 -144
10 -327 139 -46 32 -91 61 -99 64 -8 3 -28 15 -45 28 -38 27 -193 104 -212
104 -7 0 -21 4 -31 9 -61 32 -133 44 -297 47 -93 1 -190 -1 -215 -5z"/>
<path d="M1355 1920 c-71 -14 -218 -69 -268 -100 -27 -17 -51 -30 -54 -30 -3
0 -26 -15 -52 -34 -102 -74 -243 -109 -520 -130 l-156 -11 0 -75 0 -75 179 -7
178 -6 72 -35 c39 -20 90 -52 113 -71 22 -20 45 -36 49 -36 4 0 15 -6 23 -14
21 -18 126 -77 219 -121 39 -20 72 -41 72 -47 0 -18 -158 -169 -230 -220 -153
-109 -277 -158 -400 -158 -133 0 -231 70 -266 188 -14 51 -14 61 0 109 8 30
25 63 38 73 30 26 123 53 153 46 40 -10 74 -48 87 -99 11 -41 10 -51 -4 -75
-34 -55 -113 -74 -196 -47 -38 13 -26 -20 21 -58 80 -66 189 -72 266 -15 49
35 66 83 65 178 -1 102 -18 147 -79 207 -62 60 -110 78 -206 76 -84 -1 -137
-24 -212 -93 -130 -118 -151 -283 -61 -467 31 -65 123 -162 180 -191 72 -37
152 -47 246 -33 186 29 261 65 458 218 34 26 72 55 83 63 12 8 69 55 127 105
195 167 169 151 267 159 49 4 102 8 118 9 l30 2 7 -90 c3 -49 9 -138 13 -197
7 -104 16 -131 30 -87 4 12 18 37 32 58 14 20 29 46 34 58 21 56 165 254 226
313 78 75 183 133 272 151 78 15 145 0 219 -48 59 -38 186 -160 217 -207 24
-37 45 -34 45 8 0 33 -21 66 -80 127 -14 14 -62 64 -106 110 -45 46 -117 116
-159 154 -43 39 -85 77 -94 85 -37 34 -249 194 -300 225 -197 121 -343 166
-538 164 -65 -1 -136 -5 -158 -9z m-164 -280 c-7 -159 70 -286 212 -347 71
-31 178 -31 250 -1 51 21 157 111 157 134 0 6 7 17 15 24 22 18 45 111 45 179
0 34 4 61 10 61 26 0 450 -265 450 -281 0 -8 -63 -19 -112 -19 -38 0 -128 -27
-253 -75 -242 -94 -295 -108 -410 -109 -99 -1 -120 2 -205 31 -97 33 -242 103
-315 152 -92 63 -112 78 -153 110 -23 19 -42 38 -42 42 0 5 51 32 113 61 61
29 139 67 172 84 33 17 62 29 65 27 2 -2 3 -35 1 -73z"/>
</g>
</svg>
